<!DOCTYPE svg PUBLIC "-//W3C//DTD SVG 1.1//EN" "http://www.w3.org/Graphics/SVG/1.1/DTD/svg11.dtd">
<!-- Uploaded to: SVG Repo, www.svgrepo.com, Transformed by: SVG Repo Mixer Tools -->
<svg height="800px" width="800px" version="1.1" id="Layer_1" xmlns="http://www.w3.org/2000/svg" xmlns:xlink="http://www.w3.org/1999/xlink" viewBox="0 0 512 512" xml:space="preserve" fill="#000000">
<g id="SVGRepo_bgCarrier" stroke-width="0"/>
<g id="SVGRepo_tracerCarrier" stroke-linecap="round" stroke-linejoin="round" stroke="#CCCCCC" stroke-width="7.168000000000001"/>
<g id="SVGRepo_iconCarrier"> <path style="fill:#A59D8C;" d="M256,0C162.779,0,87.209,75.57,87.209,168.791v319.39h337.582v-319.39C424.791,75.57,349.221,0,256,0 z"/> <path style="fill:#E2D8BD;" d="M132.22,488.181v-319.39c0-68.252,55.528-123.78,123.78-123.78s123.78,55.528,123.78,123.78v319.39 H132.22z"/> <path style="fill:#F16831;" d="M478.242,444.484c-11.521,0-21.689,5.775-27.781,14.585c-6.091-8.81-16.259-14.585-27.78-14.585 s-21.689,5.775-27.781,14.585c-6.091-8.81-16.259-14.585-27.78-14.585c-11.521,0-21.689,5.775-27.781,14.585 c-6.091-8.81-16.259-14.585-27.78-14.585s-21.689,5.775-27.781,14.585c-6.091-8.81-16.259-14.585-27.78-14.585 c-11.521,0-21.689,5.775-27.781,14.585c-6.091-8.81-16.259-14.585-27.78-14.585s-21.689,5.775-27.781,14.585 c-6.091-8.81-16.259-14.585-27.78-14.585c-11.521,0-21.689,5.775-27.781,14.585c-6.091-8.81-16.259-14.585-27.78-14.585 s-21.689,5.775-27.781,14.585c-6.091-8.81-16.259-14.585-27.78-14.585c-18.645,0-33.758,0-33.758,0V512h512v-67.516 C512,444.484,496.886,444.484,478.242,444.484z"/> <g> <circle style="fill:#A59D8C;" cx="295.385" cy="360.088" r="8.44"/> <circle style="fill:#A59D8C;" cx="329.143" cy="393.846" r="8.44"/> <circle style="fill:#A59D8C;" cx="182.857" cy="393.846" r="8.44"/> <path style="fill:#A59D8C;" d="M306.637,222.242H205.363c-4.662,0-8.44-3.779-8.44-8.44c0-4.661,3.778-8.44,8.44-8.44h101.275 c4.662,0,8.44,3.779,8.44,8.44C315.077,218.463,311.299,222.242,306.637,222.242z"/> <path style="fill:#A59D8C;" d="M306.637,177.231H205.363c-4.662,0-8.44-3.779-8.44-8.44s3.778-8.44,8.44-8.44h101.275 c4.662,0,8.44,3.779,8.44,8.44S311.299,177.231,306.637,177.231z"/> </g> </g>
</svg>